<?xml version="1.0" standalone="no"?>
<!DOCTYPE svg PUBLIC "-//W3C//DTD SVG 20010904//EN"
 "http://www.w3.org/TR/2001/REC-SVG-20010904/DTD/svg10.dtd">
<svg version="1.0" xmlns="http://www.w3.org/2000/svg"
 width="214.000000pt" height="214.000000pt" viewBox="0 0 214.000000 214.000000"
 preserveAspectRatio="xMidYMid meet">
<metadata>
Created by potrace 1.11, written by Peter Selinger 2001-2013
</metadata>
<g transform="translate(0.000000,214.000000) scale(0.100000,-0.100000)"
fill="#000000" stroke="none">
<path d="M955 1978 c-48 -17 -108 -49 -135 -73 -14 -13 -36 -26 -50 -30 -39
-12 -66 -33 -95 -74 -20 -30 -35 -40 -65 -45 -22 -3 -51 -11 -65 -18 -28 -13
-75 -98 -75 -138 0 -15 -10 -35 -21 -46 -33 -29 -59 -100 -59 -157 0 -41 -7
-61 -29 -95 -37 -55 -46 -107 -31 -188 7 -38 9 -79 4 -101 -4 -21 -6 -42 -5
-48 2 -5 4 -44 6 -85 4 -95 10 -123 47 -240 71 -222 172 -352 338 -434 30 -14
72 -29 93 -33 32 -5 41 -11 53 -42 8 -21 26 -41 41 -48 31 -15 323 -18 323 -4
0 5 8 11 18 14 11 2 22 17 25 35 5 24 13 33 34 38 78 16 203 84 258 139 106
106 153 191 205 375 33 117 40 164 36 252 -3 63 0 92 10 105 27 35 6 152 -37
207 -17 22 -19 34 -14 80 6 43 3 63 -14 101 -12 27 -24 62 -26 79 -10 56 -58
140 -95 164 -25 17 -38 36 -47 67 -14 46 -49 81 -91 92 -14 3 -52 33 -84 66
l-59 60 -72 -6 c-45 -3 -85 0 -107 8 -96 34 -161 41 -215 23z m154 -60 c47
-10 51 -14 51 -40 0 -34 11 -35 74 -3 62 31 71 31 118 -1 32 -23 36 -30 31
-55 -5 -24 -1 -30 21 -39 15 -5 50 -10 77 -10 56 0 52 5 69 -97 12 -76 29 -95
57 -67 15 14 18 14 37 -6 17 -16 21 -33 21 -81 0 -54 3 -62 33 -90 35 -33 48
-67 37 -102 -20 -66 -23 -92 -14 -109 6 -10 13 -17 17 -14 22 13 62 -47 62
-93 0 -33 -15 -49 -24 -26 -8 22 -36 18 -36 -5 0 -11 7 -37 15 -57 35 -84 2
-145 -87 -158 -29 -4 -78 -11 -108 -16 -30 -5 -155 -15 -277 -23 -189 -12
-254 -12 -430 0 -115 7 -224 16 -243 19 -130 22 -157 27 -176 31 -26 5 -68 95
-59 125 4 11 20 36 37 55 37 42 32 69 -11 61 -27 -6 -29 -4 -34 37 -10 72 8
116 49 116 23 0 23 0 17 96 l-6 95 63 60 c59 55 62 60 47 77 -26 29 -1 92 37
92 8 0 18 5 21 10 10 17 25 11 25 -9 0 -29 21 -37 36 -15 7 10 18 24 23 30 5
7 7 15 4 18 -4 3 -1 6 5 6 7 0 12 6 12 13 0 6 10 25 23 40 18 22 32 29 77 33
119 11 120 12 114 44 -6 26 -2 31 32 48 46 23 94 26 163 10z"/>
<path d="M1133 1764 c-18 -9 -35 -25 -38 -35 -7 -22 -16 -23 -63 -9 -48 13
-112 -13 -112 -46 0 -17 6 -24 19 -24 11 0 23 5 26 10 13 20 72 10 119 -21 35
-23 50 -29 58 -21 8 8 8 18 0 37 -10 21 -9 26 7 34 17 9 32 7 94 -15 9 -4 17
-10 17 -14 0 -10 108 -65 115 -58 20 20 -71 119 -148 161 -39 21 -53 21 -94 1z"/>
<path d="M812 1473 c-12 -2 -28 -13 -35 -24 -9 -14 -23 -19 -57 -19 -38 0 -51
-6 -88 -39 -41 -38 -56 -81 -28 -81 7 0 30 14 51 30 46 36 107 41 139 11 25
-23 67 -31 73 -14 2 6 -9 25 -26 41 -34 32 -27 52 18 52 20 0 35 -14 65 -55
43 -60 76 -73 76 -30 0 22 4 25 38 25 38 0 36 2 116 -95 19 -24 27 -27 37 -18
26 26 -43 118 -115 151 -36 17 -50 19 -80 11 -32 -9 -38 -7 -67 21 -18 16 -37
30 -43 30 -6 0 -20 2 -31 4 -11 2 -30 2 -43 -1z"/>
<path d="M941 1064 c-60 -16 -81 -29 -81 -51 0 -16 47 -12 123 9 28 8 48 8 80
-2 39 -12 41 -13 20 -23 -29 -13 -32 -57 -5 -57 10 0 27 7 38 15 10 8 35 14
54 14 28 0 44 -9 80 -44 46 -46 70 -56 70 -30 0 8 -4 15 -9 15 -23 0 -20 34 6
56 35 30 80 31 135 4 53 -25 88 -26 88 -2 0 35 -84 80 -154 81 -32 1 -49 -7
-87 -39 -44 -37 -49 -39 -73 -26 -14 7 -40 28 -57 45 -16 18 -41 36 -55 41
-36 14 -110 11 -173 -6z"/>
</g>
</svg>
